# xmcd CD database file
#
# Track frame offsets:
#	150
#	25650
#	46360
#	48632
#	69985
#	90580
#	111545
#	135007
#	151842
#	179222
#	206230
#	236557
#	258107
#	280402
#
# Disc length: 4047 seconds
#
# Revision: 0
# Processed by: cddbd v1.5PL3 Copyright (c) Steve Scherf et al.
# Submitted via: CDex 1.50
#
DISCID=c40fcd0e
DTITLE=大黒　摩季 - Rhythm Black
DYEAR=2003
DGENRE=Pop
TTITLE0=夏が来る、そして・・・
TTITLE1=勝手に決めないでよ
TTITLE2=Cyber Love Intro
TTITLE3=Cyber Love
TTITLE4=0℃のTenderness
TTITLE5=砂の孤独
TTITLE6=運命なんかクソ食らえ -Runaway Blood-
TTITLE7=Get The Groove
TTITLE8=あのバスに乗って
TTITLE9=Friendship
TTITLE10=潮騒
TTITLE11=素晴らしい世界
TTITLE12=アイデンティティ
TTITLE13=Flowin' (Maki's Scat Mix)
EXTD=YEAR: 2003
EXTT0=
EXTT1=
EXTT2=
EXTT3=
EXTT4=
EXTT5=
EXTT6=
EXTT7=
EXTT8=
EXTT9=
EXTT10=
EXTT11=
EXTT12=
EXTT13=
PLAYORDER=
